D:\Gebruiker\Documents\~school~\WTK\thesis\model\3dpredictsim_Lars\Results\Test_Lars\Test1_bCst_exo_GRF.mot
nRows=20
nColumns=19

name D:\Gebruiker\Documents\~school~\WTK\thesis\model\3dpredictsim_Lars\Results\Test_Lars\Test1_bCst_exo_GRF.mot
datacolumns 19
datarows 20
range 0.5778252008 0.7973987771
endheader
time 	ground_force_vx	ground_force_vy	ground_force_vz	ground_force_px	ground_force_py	ground_force_pz	1_ground_force_vx	1_ground_force_vy	1_ground_force_vz	1_ground_force_px	1_ground_force_py	1_ground_force_pz	ground_torque_x	ground_torque_y	ground_torque_z	1_ground_torque_x	1_ground_torque_y	1_ground_torque_z
        0.5778252008	      104.0437547810	      427.6565224459	        2.1528771973	        0.3810223311	        0.0000000000	        0.0366546425	      -75.2786765921	       57.9050802548	      -18.2531556357	        0.8852630126	        0.0000000000	       -0.0503866205	        0.0000000000	        0.0000000000	        0.0000000000	        0.0000000000	        0.0000000000	        0.0000000000	
        0.5893817048	       72.1557563116	      326.7035679312	        7.9655038316	        0.3880863896	        0.0000000000	        0.0338728529	     -136.4529100023	      139.0298444795	      -48.3642466493	        0.8937863102	        0.0000000000	       -0.0485694115	        0.0000000000	        0.0000000000	        0.0000000000	        0.0000000000	        0.0000000000	        0.0000000000	
        0.6009382089	       39.6671254176	      218.5051569808	       14.0721417959	        0.4005873807	        0.0000000000	        0.0284322940	      -62.1341265753	      297.8106003238	      -20.7007511504	        0.9005184817	        0.0000000000	       -0.0469443348	        0.0000000000	        0.0000000000	        0.0000000000	        0.0000000000	        0.0000000000	        0.0000000000	
        0.6124947129	       25.1105716550	      164.1312930931	       15.7422041176	        0.4088727289	        0.0000000000	        0.0243220284	      -52.7933567584	      498.5668142736	        2.3028953378	        0.9061521458	        0.0000000000	       -0.0474946231	        0.0000000000	        0.0000000000	        0.0000000000	        0.0000000000	        0.0000000000	        0.0000000000	
        0.6240512169	       21.9991905881	      130.5824882091	       14.1524822395	        0.4091826953	        0.0000000000	        0.0242853145	      -89.2776349207	      724.5443338805	       14.7970259180	        0.9158848640	        0.0000000000	       -0.0499236373	        0.0000000000	        0.0000000000	        0.0000000000	        0.0000000000	        0.0000000000	        0.0000000000	
        0.6356077209	       13.2156462719	       84.9946914571	       13.8674383667	        0.4094748731	        0.0000000000	        0.0244945113	     -114.6808769248	      846.4527450103	       20.4454212895	        0.9224298087	        0.0000000000	       -0.0514934663	        0.0000000000	        0.0000000000	        0.0000000000	        0.0000000000	        0.0000000000	        0.0000000000	
        0.6471642249	        0.7581674188	       34.7651516406	        8.6455234808	        0.4091649956	        0.0000000000	        0.0246470915	     -120.8632138160	      874.7861518435	       20.9854652547	        0.9267765372	        0.0000000000	       -0.0524223819	        0.0000000000	        0.0000000000	        0.0000000000	        0.0000000000	        0.0000000000	        0.0000000000	
        0.6587207289	        0.3783473174	       -0.3921618968	       -0.0280919205	        0.0000000000	        0.0000000000	        0.0000000000	     -113.5813082111	      858.8790385476	       20.4831599687	        0.9304484807	        0.0000000000	       -0.0529527705	        0.0000000000	        0.0000000000	        0.0000000000	        0.0000000000	        0.0000000000	        0.0000000000	
        0.6702772330	        0.0014056887	       -0.0011690226	        0.0000533458	        0.0000000000	        0.0000000000	        0.0000000000	     -101.1197239306	      824.3314149224	       20.0516697307	        0.9343633545	        0.0000000000	       -0.0531551879	        0.0000000000	        0.0000000000	        0.0000000000	        0.0000000000	        0.0000000000	        0.0000000000	
        0.6818337370	        0.0009293204	       -0.0006619629	        0.0000556606	        0.0000000000	        0.0000000000	        0.0000000000	      -89.0784059568	      784.2926744117	       19.4840951321	        0.9388844409	        0.0000000000	       -0.0531438794	        0.0000000000	        0.0000000000	        0.0000000000	        0.0000000000	        0.0000000000	        0.0000000000	
        0.6933902410	        0.0078965202	       -0.0050047738	        0.0005391542	        0.0000000000	        0.0000000000	        0.0000000000	      -80.2770610794	      750.2259670068	       19.3055982095	        0.9442352125	        0.0000000000	       -0.0529459354	        0.0000000000	        0.0000000000	        0.0000000000	        0.0000000000	        0.0000000000	        0.0000000000	
        0.7049467450	       -0.0452859003	        0.0261693059	       -0.0032874841	        0.0000000000	        0.0000000000	        0.0000000000	      -71.4394079228	      719.7671607606	       19.2090444203	        0.9496270841	        0.0000000000	       -0.0526456664	        0.0000000000	        0.0000000000	        0.0000000000	        0.0000000000	        0.0000000000	        0.0000000000	
        0.7165032490	       -0.0993582423	        0.0538284510	       -0.0070538573	        0.0000000000	        0.0000000000	        0.0000000000	      -62.4242167069	      690.2808234088	       19.4395828382	        0.9545724035	        0.0000000000	       -0.0523870857	        0.0000000000	        0.0000000000	        0.0000000000	        0.0000000000	        0.0000000000	        0.0000000000	
        0.7280597530	       -0.0588174832	        0.0302232900	       -0.0041560144	        0.0000000000	        0.0000000000	        0.0000000000	      -53.8631185303	      664.2256686188	       19.8809091067	        0.9592389492	        0.0000000000	       -0.0521990946	        0.0000000000	        0.0000000000	        0.0000000000	        0.0000000000	        0.0000000000	        0.0000000000	
        0.7396162571	       -0.0369891670	        0.0181887083	       -0.0026111860	        0.0000000000	        0.0000000000	        0.0000000000	      -46.0797914696	      642.5241220938	       20.2546070456	        0.9638162382	        0.0000000000	       -0.0520632764	        0.0000000000	        0.0000000000	        0.0000000000	        0.0000000000	        0.0000000000	        0.0000000000	
        0.7511727611	       -0.0284871831	        0.0134950675	       -0.0020135035	        0.0000000000	        0.0000000000	        0.0000000000	      -39.0222061892	      624.8292897894	       20.5404111253	        0.9684811143	        0.0000000000	       -0.0519443635	        0.0000000000	        0.0000000000	        0.0000000000	        0.0000000000	        0.0000000000	        0.0000000000	
        0.7627292651	       -0.0275129142	        0.0126215549	       -0.0019327463	        0.0000000000	        0.0000000000	        0.0000000000	      -32.4177721345	      611.6025379307	       20.8076177648	        0.9737580364	        0.0000000000	       -0.0517832648	        0.0000000000	        0.0000000000	        0.0000000000	        0.0000000000	        0.0000000000	        0.0000000000	
        0.7742857691	       -0.0329859524	        0.0147062215	       -0.0022958074	        0.0000000000	        0.0000000000	        0.0000000000	      -27.3312003268	      602.4619769392	       20.8665922321	        0.9797425087	        0.0000000000	       -0.0515339071	        0.0000000000	        0.0000000000	        0.0000000000	        0.0000000000	        0.0000000000	        0.0000000000	
        0.7858422731	       -0.0476768751	        0.0207053007	       -0.0032667312	        0.0000000000	        0.0000000000	        0.0000000000	      -23.2420676316	      596.4100201576	       20.6627655954	        0.9861069367	        0.0000000000	       -0.0511989840	        0.0000000000	        0.0000000000	        0.0000000000	        0.0000000000	        0.0000000000	        0.0000000000	
        0.7973987771	       -0.0791451170	        0.0335568918	       -0.0052896933	        0.0000000000	        0.0000000000	        0.0000000000	      -19.4910552906	      592.4353085161	       20.3196402993	        0.9927467889	        0.0000000000	       -0.0507853263	        0.0000000000	        0.0000000000	        0.0000000000	        0.0000000000	        0.0000000000	        0.0000000000	
